<?xml version="1.0" encoding="UTF-8"?>
<svg id="Livello_1" data-name="Livello 1" xmlns="http://www.w3.org/2000/svg" viewBox="0 0 513 513">
  <defs>
    <style>
      .cls-1 {
        fill: #0f172a;
        stroke: #1d1d1b;
        stroke-miterlimit: 10;
      }

      .cls-2 {
        fill: #f8fafc;
      }
    </style>
  </defs>
  <rect class="cls-1" x=".5" y=".5" width="512" height="512" rx="50" ry="50"/>
  <g>
    <path class="cls-2" d="M82.68,347v-182h117v31.2h-82.68v43.42h75.4v31.2h-75.4v44.98h84.24v31.2h-118.56Z"/>
    <path class="cls-2" d="M295.88,350.64c-22.53,0-40.39-6.28-53.56-18.85-13.17-12.57-19.76-30.55-19.76-53.95v-43.68c0-23.4,6.59-41.38,19.76-53.95,13.17-12.57,31.03-18.85,53.56-18.85s39.65,6.11,51.87,18.33c12.22,12.22,18.33,28.99,18.33,50.31v1.56h-33.8v-2.6c0-10.75-2.99-19.59-8.97-26.52-5.98-6.93-15.12-10.4-27.43-10.4s-21.67,3.73-28.6,11.18c-6.93,7.45-10.4,17.59-10.4,30.42v44.72c0,12.65,3.47,22.75,10.4,30.29,6.93,7.54,16.47,11.31,28.6,11.31s21.45-3.51,27.43-10.53c5.98-7.02,8.97-15.82,8.97-26.39v-4.68h33.8v3.64c0,21.32-6.11,38.09-18.33,50.31s-29.51,18.33-51.87,18.33Z"/>
    <path class="cls-2" d="M415.74,350.64c-6.93,0-12.79-2.3-17.55-6.89-4.77-4.59-7.15-10.53-7.15-17.81s2.38-13.22,7.15-17.81c4.76-4.59,10.62-6.89,17.55-6.89s13,2.3,17.68,6.89c4.68,4.59,7.02,10.53,7.02,17.81s-2.34,13.22-7.02,17.81-10.57,6.89-17.68,6.89Z"/>
  </g>
</svg>